<svg id="svg" xmlns="http://www.w3.org/2000/svg" xmlns:xlink="http://www.w3.org/1999/xlink" width="400" height="109.46547884187082" viewBox="0, 0, 400,109.46547884187082"><g id="svgg"><path id="path0" d="M75.056 1.392 C 75.056 1.979,75.047 1.983,74.541 1.597 C 74.054 1.225,77.283 -3.022,51.691 31.646 L 29.522 61.678 15.448 83.821 C 7.707 95.999,1.288 106.095,1.182 106.256 L 0.990 106.549 1.606 106.922 L 2.221 107.294 2.224 107.934 L 2.227 108.575 26.615 108.575 L 51.002 108.575 51.003 107.879 L 51.003 107.183 51.504 106.977 C 51.779 106.863,52.004 106.708,52.004 106.631 C 52.004 106.554,47.639 96.925,42.304 85.234 C 36.969 73.542,32.579 63.888,32.547 63.781 C 32.493 63.595,36.415 63.586,113.795 63.586 L 195.100 63.586 195.100 85.412 L 195.100 107.238 195.731 107.238 C 196.212 107.238,196.481 107.308,196.866 107.534 C 197.354 107.820,197.374 107.823,197.511 107.617 C 197.588 107.501,203.538 97.558,210.734 85.523 L 223.817 63.641 310.906 63.614 L 397.996 63.586 397.996 63.006 C 397.996 62.489,398.040 62.381,398.401 62.011 L 398.807 61.595 398.540 61.280 C 398.123 60.785,341.752 1.225,341.701 1.225 C 341.676 1.225,341.479 1.380,341.262 1.571 L 340.869 1.916 340.869 1.404 L 340.869 0.891 207.962 0.891 L 75.056 0.891 75.056 1.392 M367.669 32.215 L 394.971 61.080 310.218 61.108 C 263.603 61.123,225.443 61.115,225.417 61.089 C 225.391 61.063,227.683 57.174,230.510 52.447 C 233.337 47.720,235.626 43.790,235.596 43.713 C 235.539 43.564,233.853 42.539,233.664 42.539 C 233.602 42.539,225.463 56.068,215.578 72.603 L 197.606 102.666 197.578 72.881 L 197.550 43.096 196.325 43.096 L 195.100 43.096 195.100 52.116 L 195.100 61.136 114.078 61.136 C 69.515 61.136,33.072 61.094,33.092 61.043 C 33.112 60.991,42.700 47.988,54.399 32.147 L 75.668 3.345 208.018 3.347 L 340.367 3.350 367.669 32.215 M39.770 85.608 L 49.100 106.069 37.849 106.097 C 31.660 106.113,21.566 106.113,15.416 106.097 L 4.236 106.069 17.280 85.550 C 24.454 74.264,30.350 65.056,30.382 65.089 C 30.414 65.121,34.639 74.355,39.770 85.608 " stroke="none" fill="#FFFFFF" fill-rule="evenodd"></path></g></svg>